<svg id="visual" viewBox="0 0 900 600" width="900" height="600" xmlns="http://www.w3.org/2000/svg" xmlns:xlink="http://www.w3.org/1999/xlink" version="1.1"><path d="M0 74L21.5 75.2C43 76.3 86 78.7 128.8 88.5C171.7 98.3 214.3 115.7 257.2 131.3C300 147 343 161 385.8 165.5C428.7 170 471.3 165 514.2 164.3C557 163.7 600 167.3 642.8 165C685.7 162.7 728.3 154.3 771.2 139.7C814 125 857 104 878.5 93.5L900 83L900 0L878.5 0C857 0 814 0 771.2 0C728.3 0 685.7 0 642.8 0C600 0 557 0 514.2 0C471.3 0 428.7 0 385.8 0C343 0 300 0 257.2 0C214.3 0 171.7 0 128.8 0C86 0 43 0 21.5 0L0 0Z" fill="#bee5f9" stroke-linecap="round" stroke-linejoin="miter"></path></svg>